<?xml version="1.0" encoding="UTF-8"?>
<svg xmlns="http://www.w3.org/2000/svg" width="288" height="288">
  <rect width="288" height="288" fill="#232136"/>
  <rect x="0" y="0" width="12" height="12" rx="3" ry="3" fill="#eb6f92"/><rect x="0" y="48" width="12" height="12" rx="3" ry="3" fill="#908caa"/><rect x="0" y="96" width="12" height="12" rx="3" ry="3" fill="#ea9a97"/><rect x="0" y="144" width="12" height="12" rx="3" ry="3" fill="#c4a7e7"/><rect x="0" y="192" width="12" height="12" rx="3" ry="3" fill="#e0def4"/><rect x="0" y="240" width="12" height="12" rx="3" ry="3" fill="#c4a7e7"/><rect x="48" y="0" width="12" height="12" rx="3" ry="3" fill="#e0def4"/><rect x="48" y="48" width="12" height="12" rx="3" ry="3" fill="#ea9a97"/><rect x="48" y="96" width="12" height="12" rx="3" ry="3" fill="#3e8fb0"/><rect x="48" y="144" width="12" height="12" rx="3" ry="3" fill="#3e8fb0"/><rect x="48" y="192" width="12" height="12" rx="3" ry="3" fill="#3e8fb0"/><rect x="48" y="240" width="12" height="12" rx="3" ry="3" fill="#eb6f92"/><rect x="96" y="0" width="12" height="12" rx="3" ry="3" fill="#f6c177"/><rect x="96" y="48" width="12" height="12" rx="3" ry="3" fill="#908caa"/><rect x="96" y="96" width="12" height="12" rx="3" ry="3" fill="#6e6a86"/><rect x="96" y="144" width="12" height="12" rx="3" ry="3" fill="#e0def4"/><rect x="96" y="192" width="12" height="12" rx="3" ry="3" fill="#f6c177"/><rect x="96" y="240" width="12" height="12" rx="3" ry="3" fill="#6e6a86"/><rect x="144" y="0" width="12" height="12" rx="3" ry="3" fill="#c4a7e7"/><rect x="144" y="48" width="12" height="12" rx="3" ry="3" fill="#eb6f92"/><rect x="144" y="96" width="12" height="12" rx="3" ry="3" fill="#9ccfd8"/><rect x="144" y="144" width="12" height="12" rx="3" ry="3" fill="#f6c177"/><rect x="144" y="192" width="12" height="12" rx="3" ry="3" fill="#9ccfd8"/><rect x="144" y="240" width="12" height="12" rx="3" ry="3" fill="#eb6f92"/><rect x="192" y="0" width="12" height="12" rx="3" ry="3" fill="#3e8fb0"/><rect x="192" y="48" width="12" height="12" rx="3" ry="3" fill="#f6c177"/><rect x="192" y="96" width="12" height="12" rx="3" ry="3" fill="#3e8fb0"/><rect x="192" y="144" width="12" height="12" rx="3" ry="3" fill="#c4a7e7"/><rect x="192" y="192" width="12" height="12" rx="3" ry="3" fill="#ea9a97"/><rect x="192" y="240" width="12" height="12" rx="3" ry="3" fill="#908caa"/><rect x="240" y="0" width="12" height="12" rx="3" ry="3" fill="#908caa"/><rect x="240" y="48" width="12" height="12" rx="3" ry="3" fill="#6e6a86"/><rect x="240" y="96" width="12" height="12" rx="3" ry="3" fill="#eb6f92"/><rect x="240" y="144" width="12" height="12" rx="3" ry="3" fill="#ea9a97"/><rect x="240" y="192" width="12" height="12" rx="3" ry="3" fill="#eb6f92"/><rect x="240" y="240" width="12" height="12" rx="3" ry="3" fill="#ea9a97"/>
</svg>