<?xml version="1.0" encoding="UTF-8" standalone="no"?>
<svg
   xml:space="preserve"
   height="225"
   width="225"
   version="1.1"
   viewBox="0 0 225.00231 225"
   id="svg2"
   xmlns="http://www.w3.org/2000/svg"
   xmlns:svg="http://www.w3.org/2000/svg"><defs
     id="defs2" /><rect
     style="fill:#9d2235;fill-opacity:1;stroke-width:1.00001"
     id="rect2"
     width="265.54617"
     height="263.70132"
     x="-29.856524"
     y="-16.992813" /><g
     id="g2"
     transform="translate(51.083955,21.4913)"><path
       fill="#ffc72c"
       d="m 19.112,1.0078 -17.838,17.838 2e-4,37.457 17.834,17.84 h 27.944 l -14.997,14.998 v 5.595 h -2.839 V 78.7618 H 1.2742 l 2e-4,24.408 17.838,17.84 h 12.943 v 42.16 l 17.836,17.84 h 53.829 l 17.84,-17.84 v -24.41 h -27.946 v 15.98 h -33.621 v -33.73 h 12.943 l 17.838,-17.84 v -5.596 h 2.84 v 15.976 h 27.946 v -24.405 l -17.84,-17.842 h -12.946 v -5.59 l -17.836,-17.84 -43.722,-0.002 v -20.592 h 33.619 v 15.973 h 27.939 v -24.404 l -17.838,-17.84 -53.824,-2e-4 z"
       id="path1" /><path
       d="m 20.289,3.8457 -16.178,16.175 3e-4,35.108 16.174,16.176 h 45.385 v 26.269 h -5.676 v 20.596 h 11.764 l 16.178,-16.18 v -35.101 l -16.174,-16.176 -45.387,-0.002 v -26.273 h 39.295 v 15.976 h 22.266 v -20.391 l -16.174,-16.177 -51.473,-3e-4 z m 30.777,70.297 -16.175,16.173 v 0.002 71.672 l 16.173,16.18 h 51.476 l 16.18,-16.18 v -20.39 H 96.449 v 15.98 H 57.154 v -62.844 h 5.68 v -20.591 z m 39.707,0 v 20.593 h 5.678 v 15.974 h 22.269 v -20.39 l -16.18,-16.177 z m -86.662,7.459 v 20.388 l 16.174,16.18 h 11.77 v -20.596 h -5.68 v -15.972 z"
       fill="#9d2235"
       transform="translate(0,-9.308e-4)"
       id="path2"
       style="fill:#9d2235;fill-opacity:1" /></g></svg>
